<svg width="50" height="50" viewBox="0 0 50 50" fill="none" xmlns="http://www.w3.org/2000/svg">
<path d="M44.4436 0.553223H5.55469C2.79327 0.553223 0.554688 2.7918 0.554688 5.55322V44.4422C0.554688 47.2035 2.79327 49.4422 5.55469 49.4422H44.4436C47.205 49.4422 49.4436 47.2035 49.4436 44.4422V5.55322C49.4436 2.7918 47.205 0.553223 44.4436 0.553223Z" fill="#E0E0E0" fill-opacity="0.6" stroke="#E5E5E5"/>
<path d="M39.0135 11.6748C38.595 11.5305 38.4644 11.4452 38.4644 11.2892C38.4644 11.1155 38.6097 11.0124 38.868 11.0124C39.0787 11.0124 39.2895 11.0713 39.4469 11.1332L39.5152 10.3795C39.3222 10.3265 39.0877 10.2853 38.8324 10.2853C37.9894 10.2853 37.4462 10.7622 37.4462 11.3893C37.4402 11.7896 37.7104 12.1694 38.4139 12.4048C38.8117 12.5374 38.9155 12.6197 38.9155 12.7905C38.9155 12.9642 38.782 13.0732 38.4614 13.0732C38.1497 13.0732 37.746 12.9347 37.55 12.8171L37.363 13.5706C37.6214 13.709 38.016 13.8062 38.4644 13.8062C39.441 13.8062 39.9397 13.344 39.9397 12.714C39.9337 12.2194 39.6635 11.8956 39.0135 11.6748ZM41.5752 12.9524C41.2547 12.9524 41.1567 12.767 41.1567 12.3577V9.44629L40.1207 9.68181V10.3618H39.7259L39.6547 11.1361H40.1237V12.5138C40.1237 12.9907 40.2217 13.3145 40.4175 13.5147C40.5837 13.6884 40.8687 13.8062 41.21 13.8062C41.51 13.8062 41.7594 13.7708 41.8987 13.7148L41.8929 12.9201C41.8127 12.9347 41.7089 12.9495 41.5752 12.9524ZM41.2397 11.1361H41.8899V10.3618H41.2397V11.1361ZM29.482 12.1105C29.4612 11.5924 29.4434 10.9683 29.4434 10.3412H29.4225C29.283 10.8917 29.093 11.5041 28.918 12.0074L28.3659 13.6884H27.5704L27.0864 12.0192C26.938 11.5128 26.7837 10.9006 26.6769 10.3383H26.665C26.6382 10.9182 26.6174 11.5835 26.5847 12.1223L26.5047 13.7561H25.5547L25.8427 9.44924H27.2052L27.6475 10.8858C27.787 11.3834 27.9295 11.9221 28.0304 12.4255H28.0512C28.1789 11.928 28.3332 11.3568 28.4817 10.88L28.9654 9.44924H30.3012L30.5505 13.7561H29.5502L29.482 12.1105ZM35.0894 12.3843C35.1249 12.82 35.5554 13.0261 36.051 13.0261C36.4132 13.0261 36.704 12.979 36.992 12.8876L37.1315 13.6001C36.7842 13.7384 36.3597 13.8062 35.8997 13.8062C34.745 13.8062 34.083 13.1437 34.083 12.087C34.083 11.2303 34.6204 10.2853 35.8017 10.2853C36.903 10.2853 37.3185 11.1332 37.3185 11.9692C37.3185 12.1487 37.2977 12.3077 37.283 12.3843H35.0894ZM36.336 11.666C36.336 11.4098 36.2232 10.983 35.7364 10.983C35.291 10.983 35.11 11.3834 35.0834 11.666H36.336Z" fill="#0862AF"/>
<path d="M42.6109 9.45534L43.3292 10.7506L42.6109 12.0518H41.8835L42.6019 10.7506L41.8835 9.45534H42.6109C42.6109 9.45239 42.6109 9.45239 42.6109 9.45534ZM33.7382 15.0339H30.8232V14.3157H33.7382V15.0339ZM31.6782 12.3845C31.7139 12.8201 32.1442 13.0263 32.6399 13.0263C33.0022 13.0263 33.293 12.9791 33.5809 12.8879L33.7205 13.6003C33.3732 13.7387 32.9487 13.8064 32.4885 13.8064C31.3339 13.8064 30.6719 13.144 30.6719 12.0871C30.6719 11.2305 31.2092 10.2855 32.3905 10.2855C33.4919 10.2855 33.9075 11.1334 33.9075 11.9694C33.9075 12.149 33.8867 12.3079 33.8719 12.3845H31.6782ZM32.9249 11.6661C32.9249 11.41 32.8122 10.9832 32.3254 10.9832C31.88 10.9832 31.699 11.3836 31.6692 11.6661H32.9249Z" fill="#ED1C24"/>
<path d="M13.2578 4.91011C14.6815 4.38516 16.1229 3.91136 17.5264 3.33301C17.3063 4.06261 17.1418 4.90789 16.4633 5.36389C15.5134 6.04901 14.3211 6.24476 13.2578 6.70076C13.26 6.10462 13.26 5.50626 13.2578 4.91011Z" fill="#0101EF"/>
<path d="M13.2578 7.13314C14.3989 6.72164 15.5335 6.28787 16.6768 5.88525C16.5255 6.40354 16.4544 6.98189 16.0784 7.4023C15.3622 8.24757 14.2344 8.49004 13.26 8.91267C13.26 8.31875 13.26 7.72707 13.2578 7.13314Z" fill="#0101EF"/>
<path d="M13.4385 9.81738C14.3861 9.81738 15.3359 9.81737 16.2835 9.82182C16.2724 12.6179 16.3058 15.414 16.2702 18.2102C16.2702 19.32 15.4983 20.3165 14.484 20.7103C13.4585 21.1797 12.3108 21.1107 11.2141 21.1085C11.2119 20.4122 11.2096 19.7138 11.2119 19.0175C12.1483 19.102 13.3762 18.6527 13.4274 17.5695C13.4496 14.9869 13.4251 12.4021 13.4385 9.81738Z" fill="#0101EF"/>
<path d="M2.73047 32.3136H3.178C3.56085 31.5478 3.86317 30.7834 4.08495 30.0204C4.30675 29.2548 4.47177 28.4296 4.58002 27.5451H7.95437V32.3136H8.72667V35.0226H7.54249V33.3354H3.91465V35.0226H2.73047V32.3136ZM5.5543 28.5669C5.46982 29.1716 5.32855 29.8118 5.13052 30.4878C4.93515 31.1638 4.71469 31.7723 4.46912 32.3136H6.73057V28.5669H5.5543ZM14.8773 30.4324C14.8773 31.3908 14.6397 32.1274 14.1645 32.6423C13.6892 33.1571 13.008 33.4146 12.1208 33.4146C11.2337 33.4146 10.5525 33.1571 10.0772 32.6423C9.60194 32.1274 9.36432 31.3881 9.36432 30.4244C9.36432 29.4608 9.60194 28.7254 10.0772 28.2184C10.5551 27.7088 11.2389 27.4541 12.1288 27.4541C13.0186 27.4541 13.6985 27.7101 14.1685 28.2224C14.641 28.7346 14.8773 29.4713 14.8773 30.4324ZM10.6515 30.4324C10.6515 31.0791 10.7743 31.5664 11.0198 31.8938C11.2653 32.2211 11.6323 32.3848 12.1208 32.3848C13.1003 32.3848 13.5901 31.7341 13.5901 30.4324C13.5901 29.1281 13.103 28.4758 12.1288 28.4758C11.6402 28.4758 11.272 28.6408 11.0238 28.9709C10.7756 29.2983 10.6515 29.7854 10.6515 30.4324ZM18.5368 28.4838C18.0748 28.4838 17.7169 28.6581 17.4636 29.0066C17.2101 29.3524 17.0833 29.8356 17.0833 30.4561C17.0833 31.7473 17.5678 32.3928 18.5368 32.3928C18.9434 32.3928 19.4359 32.2911 20.0141 32.0878V33.1176C19.5389 33.3156 19.0081 33.4146 18.4219 33.4146C17.5796 33.4146 16.9354 33.1598 16.4892 32.6501C16.043 32.1379 15.8199 31.4039 15.8199 30.4481C15.8199 29.8461 15.9296 29.3194 16.1487 28.8679C16.3678 28.4138 16.6819 28.0666 17.0913 27.8263C17.5031 27.5834 17.9849 27.4619 18.5368 27.4619C19.0993 27.4619 19.6643 27.5979 20.2319 27.8699L19.8359 28.8679C19.6193 28.7649 19.4016 28.6751 19.1824 28.5986C18.9633 28.5221 18.7481 28.4838 18.5368 28.4838ZM23.4836 33.3354H22.2558V28.5669H20.6834V27.5451H25.0558V28.5669H23.4836V33.3354ZM29.4916 33.3354L29.0718 31.9571H26.9608L26.5409 33.3354H25.2183L27.2618 27.5214H28.7629L30.8144 33.3354H29.4916ZM28.7786 30.9274C28.3906 29.6784 28.1714 28.9723 28.1213 28.8084C28.0738 28.6448 28.0394 28.5154 28.0183 28.4204C27.9311 28.7584 27.6816 29.5941 27.2698 30.9274H28.7786ZM31.5471 27.5451H33.3491C34.1703 27.5451 34.7656 27.6626 35.1353 27.8976C35.5076 28.1299 35.6938 28.5009 35.6938 29.0104C35.6938 29.3564 35.6119 29.6403 35.4483 29.8621C35.2871 30.0838 35.0719 30.2171 34.8026 30.2621V30.3016C35.1696 30.3834 35.4336 30.5366 35.5946 30.7611C35.7584 30.9854 35.8403 31.2838 35.8403 31.6561C35.8403 32.1841 35.6489 32.5961 35.2659 32.8918C34.8858 33.1874 34.3683 33.3354 33.7134 33.3354H31.5471V27.5451ZM32.7749 29.8383H33.4878C33.8204 29.8383 34.0606 29.7868 34.2086 29.6838C34.3589 29.5808 34.4343 29.4104 34.4343 29.1729C34.4343 28.9511 34.3524 28.7928 34.1888 28.6976C34.0276 28.5999 33.7716 28.5511 33.4204 28.5511H32.7749V29.8383ZM32.7749 30.8124V32.3214H33.5749C33.9128 32.3214 34.1623 32.2568 34.3234 32.1274C34.4844 31.9981 34.5649 31.8001 34.5649 31.5334C34.5649 31.0528 34.2218 30.8124 33.5353 30.8124H32.7749ZM41.7176 33.3354H40.3236L38.2244 30.4006V33.3354H36.9968V27.5451H38.2244V30.3491L40.2998 27.5451H41.6068L39.4958 30.3254L41.7176 33.3354ZM45.9909 33.3354L45.5713 31.9571H43.4603L43.0404 33.3354H41.7176L43.7613 27.5214H45.2623L47.3139 33.3354H45.9909ZM45.2781 30.9274C44.8899 29.6784 44.6709 28.9723 44.6206 28.8084C44.5733 28.6448 44.5389 28.5154 44.5178 28.4204C44.4306 28.7584 44.1811 29.5941 43.7693 30.9274H45.2781ZM8.91059 40.0888C8.91059 40.5478 8.74782 40.9271 8.4223 41.2266C8.09679 41.5261 7.6557 41.7164 7.09905 41.7978V41.8271C7.75335 41.8923 8.25465 42.0729 8.60297 42.3691C8.95454 42.6654 9.13032 43.0511 9.13032 43.5264C9.13032 44.1839 8.86339 44.7031 8.32954 45.0839C7.79894 45.4648 7.06325 45.6553 6.1225 45.6553C5.07432 45.6553 4.23285 45.5268 3.59809 45.2694V43.9999C3.90409 44.1464 4.26215 44.2621 4.6723 44.3468C5.08572 44.4281 5.47145 44.4688 5.82954 44.4688C7.0307 44.4688 7.63129 44.1188 7.63129 43.4189C7.63129 43.1031 7.4376 42.8608 7.05024 42.6914C6.66612 42.5221 6.09645 42.4374 5.34125 42.4374H4.6723V41.2558H5.27289C6.0281 41.2558 6.57822 41.1843 6.92329 41.0411C7.26834 40.8978 7.44085 40.6601 7.44085 40.3281C7.44085 40.0839 7.33182 39.8903 7.11372 39.7471C6.89887 39.6006 6.57497 39.5274 6.14204 39.5274C5.47145 39.5274 4.82367 39.7211 4.19867 40.1084L3.53949 39.0976C3.94639 38.8274 4.37772 38.6304 4.83344 38.5068C5.28917 38.3798 5.79535 38.3164 6.35199 38.3164C7.12999 38.3164 7.7501 38.4791 8.21235 38.8048C8.67783 39.1301 8.91059 39.5583 8.91059 40.0888ZM14.8335 45.5576L14.3159 43.8584H11.7133L11.1958 45.5576H9.56489L12.0845 38.3896H13.935L16.4643 45.5576H14.8335ZM13.9546 42.5888C13.476 41.0491 13.2058 40.1784 13.144 39.9766C13.0853 39.7748 13.0431 39.6153 13.017 39.4981C12.9096 39.9148 12.602 40.9449 12.0942 42.5888H13.9546ZM23.1976 45.5576H21.6889V41.4268L21.7036 40.7481L21.7279 40.0058C21.4773 40.2564 21.3031 40.4209 21.2056 40.4991L20.3853 41.1581L19.6576 40.2499L21.9574 38.4189H23.1976V45.5576ZM32.7876 38.4189V39.6689H29.7894V45.5576H28.2758V38.4189H32.7876ZM35.4048 41.7783H35.9028C36.3683 41.7783 36.7166 41.6871 36.9476 41.5048C37.1788 41.3193 37.2943 41.0508 37.2943 40.6991C37.2943 40.3444 37.1966 40.0824 37.0014 39.9131C36.8093 39.7438 36.5066 39.6591 36.0933 39.6591H35.4048V41.7783ZM38.8226 40.6454C38.8226 41.4138 38.5818 42.0013 38.0999 42.4081C37.6216 42.8151 36.9396 43.0184 36.0541 43.0184H35.4048V45.5576H33.8909V38.4189H36.1713C37.0373 38.4189 37.6948 38.6061 38.1439 38.9804C38.5964 39.3516 38.8226 39.9066 38.8226 40.6454ZM46.0199 45.5576H44.5113V42.4766H41.6839V45.5576H40.1703V38.4189H41.6839V41.2168H44.5113V38.4189H46.0199V45.5576Z" fill="#071D49"/>
</svg>
