<svg width="50" height="50" viewBox="0 0 50 50" fill="none" xmlns="http://www.w3.org/2000/svg">
<path d="M44.4436 0.553223H5.55469C2.79327 0.553223 0.554688 2.7918 0.554688 5.55322V44.4422C0.554688 47.2035 2.79327 49.4422 5.55469 49.4422H44.4436C47.205 49.4422 49.4436 47.2035 49.4436 44.4422V5.55322C49.4436 2.7918 47.205 0.553223 44.4436 0.553223Z" fill="#FFC600"/>
<path d="M6.95095 29.08C6.95095 29.437 6.82437 29.732 6.57119 29.965C6.318 30.1978 5.97494 30.346 5.542 30.4093V30.432C6.0509 30.4827 6.4408 30.6232 6.7117 30.8537C6.98514 31.084 7.12185 31.384 7.12185 31.7537C7.12185 32.265 6.91424 32.669 6.49904 32.9652C6.08634 33.2613 5.51414 33.4095 4.78244 33.4095C3.9672 33.4095 3.31272 33.3095 2.819 33.1093V32.122C3.057 32.236 3.3355 32.3258 3.65452 32.3917C3.97607 32.455 4.27609 32.4867 4.55459 32.4867C5.48884 32.4867 5.95595 32.2143 5.95595 31.67C5.95595 31.4245 5.8053 31.2358 5.50402 31.1043C5.20527 30.9727 4.7622 30.9067 4.1748 30.9067H3.65452V29.9877H4.12164C4.70902 29.9877 5.1369 29.932 5.40527 29.8207C5.67365 29.7092 5.80784 29.5243 5.80784 29.2662C5.80784 29.0763 5.72302 28.9257 5.55339 28.8142C5.38629 28.7003 5.13437 28.6433 4.79764 28.6433C4.27609 28.6433 3.77224 28.794 3.28614 29.0952L2.77344 28.309C3.08992 28.099 3.42539 27.9457 3.77984 27.8497C4.1343 27.7508 4.528 27.7015 4.96094 27.7015C5.56605 27.7015 6.04837 27.828 6.40787 28.0812C6.76994 28.3343 6.95095 28.6673 6.95095 29.08ZM11.5576 33.3335L11.1551 32.0118H9.13087L8.7283 33.3335H7.45985L9.41949 27.7583H10.8588L12.8261 33.3335H11.5576ZM10.874 31.0245C10.5019 29.827 10.2917 29.1497 10.2436 28.9927C10.198 28.8357 10.1651 28.7117 10.1449 28.6205C10.0613 28.9447 9.82205 29.746 9.42709 31.0245H10.874ZM20.5887 30.5497C20.5887 31.4688 20.3607 32.1752 19.905 32.669C19.4493 33.1627 18.796 33.4095 17.9453 33.4095C17.0947 33.4095 16.4415 33.1627 15.9857 32.669C15.5301 32.1752 15.3022 31.4663 15.3022 30.5422C15.3022 29.618 15.5301 28.913 15.9857 28.4268C16.4441 27.9382 17.0997 27.6938 17.953 27.6938C18.8063 27.6938 19.4582 27.9393 19.9088 28.4307C20.362 28.9218 20.5887 29.6282 20.5887 30.5497ZM16.5364 30.5497C16.5364 31.17 16.6542 31.6372 16.8897 31.9512C17.125 32.265 17.477 32.422 17.9453 32.422C18.8847 32.422 19.3543 31.798 19.3543 30.5497C19.3543 29.299 18.8873 28.6737 17.953 28.6737C17.4847 28.6737 17.1313 28.832 16.8933 29.1483C16.6554 29.4623 16.5364 29.9295 16.5364 30.5497ZM26.1333 33.3335H24.9598V28.761H22.9167V33.3335H21.7393V27.7812H26.1333V33.3335ZM31.9287 33.3335H30.7552V28.761H29.3957L29.3348 29.27C29.1778 30.5637 29.0387 31.4727 28.917 31.9967C28.798 32.5183 28.6233 32.8853 28.393 33.098C28.1627 33.3107 27.8512 33.4145 27.4587 33.4095C27.246 33.4095 27.0587 33.3817 26.8967 33.326V32.3613C27.0435 32.412 27.1815 32.4373 27.3107 32.4373C27.4448 32.4373 27.5512 32.3765 27.6297 32.255C27.7082 32.1308 27.7817 31.903 27.85 31.5713C27.9208 31.2372 28.0132 30.6915 28.1272 29.9345C28.2437 29.175 28.3423 28.4572 28.4233 27.7812H31.9287V33.3335ZM36.729 33.3335L36.3265 32.0118H34.3023L33.8997 33.3335H32.6313L34.591 27.7583H36.0303L37.9975 33.3335H36.729ZM36.0455 31.0245C35.6733 29.827 35.4632 29.1497 35.415 28.9927C35.3695 28.8357 35.3365 28.7117 35.3163 28.6205C35.2327 28.9447 34.9935 29.746 34.5985 31.0245H36.0455ZM40.842 33.3335H39.6647V28.761H38.157V27.7812H42.3497V28.761H40.842V33.3335ZM47.583 27.7812L45.8663 31.708C45.6512 32.2017 45.4487 32.5563 45.2587 32.7713C45.0713 32.9867 44.8487 33.1473 44.5903 33.2537C44.3322 33.3575 44.0182 33.4095 43.6485 33.4095C43.332 33.4095 43.037 33.3715 42.7637 33.2955V32.2853C42.9865 32.3765 43.2637 32.422 43.5953 32.422C43.8055 32.422 43.9752 32.374 44.1043 32.2777C44.2333 32.179 44.341 32.0093 44.427 31.7688L42.5053 27.7812H43.751L45.1183 30.8763H45.1563L45.2247 30.6865L46.3715 27.7812H47.583ZM8.2742 44.4447H6.74642L4.44607 41.2285V44.4447H3.10059V38.0992H4.44607V41.172L6.72039 38.0992H8.15267L5.8393 41.146L8.2742 44.4447ZM12.9574 44.4447L12.4973 42.9342H10.1839L9.72385 44.4447H8.2742L10.5138 38.073H12.1587L14.407 44.4447H12.9574ZM12.1761 41.8057C11.7507 40.437 11.5106 39.663 11.4556 39.4837C11.4035 39.3043 11.366 39.1625 11.3427 39.0583C11.2473 39.4287 10.9739 40.3445 10.5225 41.8057H12.1761ZM16.5554 41.0853H16.9982C17.412 41.0853 17.7215 41.0042 17.927 40.8422C18.1323 40.6773 18.2352 40.4385 18.2352 40.126C18.2352 39.8107 18.1483 39.5777 17.9747 39.4273C17.804 39.2768 17.5348 39.2015 17.1673 39.2015H16.5554V41.0853ZM19.5937 40.0783C19.5937 40.7612 19.3795 41.2833 18.9513 41.6452C18.526 42.0068 17.9197 42.1877 17.1327 42.1877H16.5554V44.4447H15.21V38.0992H17.2368C18.0065 38.0992 18.591 38.2655 18.9903 38.5983C19.3925 38.9282 19.5937 39.4215 19.5937 40.0783ZM23.2395 44.4447H21.894V39.219H20.1708V38.0992H24.9625V39.219H23.2395V44.4447ZM31.1127 44.4447H29.585L27.2847 41.2285V44.4447H25.9392V38.0992H27.2847V41.172L29.559 38.0992H30.9912L28.6778 41.146L31.1127 44.4447ZM37.6708 41.2632C37.6708 42.3135 37.4105 43.1208 36.8897 43.685C36.3688 44.2493 35.6223 44.5313 34.65 44.5313C33.6778 44.5313 32.9313 44.2493 32.4105 43.685C31.8897 43.1208 31.6292 42.3107 31.6292 41.2545C31.6292 40.1983 31.8897 39.3925 32.4105 38.837C32.9342 38.2785 33.6837 37.9993 34.6587 37.9993C35.6338 37.9993 36.379 38.28 36.894 38.8413C37.412 39.4027 37.6708 40.21 37.6708 41.2632ZM33.0398 41.2632C33.0398 41.972 33.1743 42.506 33.4435 42.8647C33.7125 43.2235 34.1147 43.403 34.65 43.403C35.7235 43.403 36.2603 42.6897 36.2603 41.2632C36.2603 39.8338 35.7263 39.119 34.6587 39.119C34.1233 39.119 33.7198 39.3 33.4478 39.6617C33.1758 40.0203 33.0398 40.5543 33.0398 41.2632ZM47.1847 41.2632C47.1847 42.3048 46.9403 43.1107 46.4513 43.6807C45.9652 44.2478 45.2663 44.5313 44.355 44.5313C43.5187 44.5313 42.8603 44.2913 42.38 43.811C41.8997 43.3277 41.622 42.626 41.5467 41.706H40.3315V44.4447H38.986V38.0992H40.3315V40.586H41.5728C41.6712 39.7498 41.9577 39.1103 42.4322 38.6677C42.9097 38.222 43.5533 37.9993 44.3637 37.9993C45.278 37.9993 45.9767 38.2828 46.46 38.85C46.9432 39.4172 47.1847 40.2215 47.1847 41.2632ZM42.927 41.2632C42.927 41.9692 43.0485 42.503 43.2915 42.8647C43.5347 43.2235 43.889 43.403 44.355 43.403C45.3157 43.403 45.7958 42.6897 45.7958 41.2632C45.7958 40.5572 45.6758 40.0233 45.4357 39.6617C45.1983 39.3 44.844 39.119 44.3723 39.119C43.8977 39.119 43.5375 39.3 43.2915 39.6617C43.0485 40.0233 42.927 40.5572 42.927 41.2632Z" fill="white"/>
<path d="M22.1507 12.2202C23.4743 12.2202 24.5197 12.5928 25.2865 13.3379C26.0533 14.0829 26.4367 15.121 26.4367 16.452C26.4367 17.66 26.1762 18.7162 25.6553 19.6203C25.1418 20.5247 24.3895 21.2227 23.3983 21.7145C22.4073 22.1992 21.2138 22.4415 19.8177 22.4415C18.9713 22.4415 18.1793 22.3583 17.4413 22.192C16.7108 22.0257 16.1248 21.8158 15.6836 21.5627V18.6438C16.9423 19.36 18.2153 19.718 19.503 19.718C20.617 19.718 21.4887 19.4612 22.118 18.9477C22.7473 18.434 23.062 17.7323 23.062 16.8425C23.062 16.1627 22.8523 15.6527 22.4327 15.3127C22.0203 14.9727 21.42 14.8027 20.6315 14.8027C19.8937 14.8027 19.1233 14.922 18.3203 15.1608L17.1918 14.3144L19.438 6.36084H27.6302L27.0333 9.20371H21.7273L20.7727 12.383C21.2933 12.2744 21.7527 12.2202 22.1507 12.2202ZM31.0027 13.9303C30.7292 13.9303 30.4883 14.2102 30.28 14.7701C30.076 15.3257 29.974 15.9268 29.974 16.5735C29.974 16.9902 30.0955 17.1985 30.3385 17.1985C30.6207 17.1985 30.8637 16.9142 31.0677 16.3457C31.2717 15.7771 31.3737 15.1803 31.3737 14.5553C31.3737 14.1387 31.25 13.9303 31.0027 13.9303ZM32.9753 14.6399C32.9753 15.3604 32.8537 16.0331 32.6107 16.6581C32.3677 17.2832 32.04 17.7542 31.6277 18.0708C31.2153 18.3878 30.7443 18.5462 30.2148 18.5462C29.6115 18.5462 29.1537 18.366 28.8412 18.0058C28.533 17.6412 28.379 17.1268 28.379 16.4629C28.379 15.7293 28.4983 15.0544 28.737 14.4381C28.98 13.8174 29.3033 13.3509 29.707 13.0383C30.1107 12.7259 30.5793 12.5695 31.1133 12.5695C31.708 12.5695 32.1658 12.7432 32.487 13.0904C32.8125 13.4377 32.9753 13.9541 32.9753 14.6399ZM37.7473 12.7063L30.6967 22.2245H29.1342L36.2175 12.7063H37.7473ZM36.5885 17.7323C36.4193 17.7323 36.2565 17.8538 36.1003 18.097C35.944 18.34 35.816 18.6742 35.7162 19.0995C35.6163 19.5248 35.5663 19.9482 35.5663 20.3692C35.5663 20.7902 35.6857 21.0005 35.9245 21.0005C36.1023 21.0005 36.2695 20.8812 36.4258 20.6425C36.582 20.4038 36.71 20.0695 36.81 19.6398C36.914 19.2058 36.9662 18.7783 36.9662 18.3573C36.9662 17.9407 36.8403 17.7323 36.5885 17.7323ZM38.5612 18.3835C38.5612 19.1082 38.444 19.7897 38.2097 20.4277C37.9753 21.0613 37.654 21.5388 37.246 21.86C36.838 22.1812 36.3715 22.3418 35.8463 22.3418C35.2213 22.3418 34.7503 22.1725 34.4337 21.8338C34.121 21.491 33.9648 21.0072 33.9648 20.3822C33.9648 19.6138 34.0798 18.9152 34.31 18.2858C34.54 17.6522 34.8612 17.1747 35.2733 16.8535C35.6857 16.5323 36.161 16.3717 36.6992 16.3717C37.2938 16.3717 37.7517 16.5431 38.073 16.886C38.3983 17.2245 38.5612 17.7237 38.5612 18.3835Z" fill="white"/>
<path d="M10.7422 14.7906L11.1161 13.0273H14.8117L14.4379 14.7906H10.7422Z" fill="white"/>
</svg>
