<svg width="50" height="50" viewBox="0 0 50 50" fill="none" xmlns="http://www.w3.org/2000/svg">
<path d="M44.4436 0.553223H5.55469C2.79327 0.553223 0.554688 2.7918 0.554688 5.55322V44.4422C0.554688 47.2035 2.79327 49.4422 5.55469 49.4422H44.4436C47.205 49.4422 49.4436 47.2035 49.4436 44.4422V5.55322C49.4436 2.7918 47.205 0.553223 44.4436 0.553223Z" fill="#E0E0E0" fill-opacity="0.6" stroke="#E5E5E5"/>
<path d="M20.2028 15.4393C22.6093 13.7669 25.6305 13.031 28.5211 13.447C31.6371 13.8651 34.5551 15.5951 36.4373 18.1442C38.4795 20.8682 39.3321 24.4882 38.6691 27.8502C38.1301 30.8217 36.4626 33.5755 34.0583 35.3695C31.7825 37.1082 28.877 37.9805 26.0348 37.7373C22.2093 37.5048 18.6301 35.2075 16.668 31.8903C20.0681 29.8745 23.4683 27.8522 26.8875 25.8705C24.7125 22.3615 22.4261 18.9185 20.2028 15.4393Z" fill="#FFCF00"/>
<path d="M11.7085 20.9023C12.5351 18.274 14.2857 15.9894 16.5302 14.4463C18.8212 17.9322 21.019 21.4783 23.3355 24.9448C19.828 26.9952 16.3203 29.0455 12.8233 31.113C11.0303 28.0805 10.6276 24.2593 11.7085 20.9023Z" fill="#F2994A"/>
<path d="M32.0065 38.8916H29.263L30.4901 33.2563C30.6216 32.6356 30.8005 32.0338 31.0261 31.4506C30.6593 31.7705 30.3513 32.0126 30.1021 32.1771L28.6705 33.0588L27.6055 31.2815L31.9783 28.5801H34.1716L32.0065 38.8916ZM42.6051 31.9586C42.6051 33.3596 42.4053 34.6056 42.0056 35.6966C41.606 36.7828 41.0536 37.6103 40.3483 38.1793C39.643 38.7481 38.8248 39.0326 37.8938 39.0326C36.9063 39.0326 36.1588 38.7365 35.651 38.144C35.1431 37.5515 34.8893 36.7075 34.8893 35.612C34.8893 34.225 35.0891 32.9718 35.4888 31.8526C35.8885 30.729 36.441 29.8756 37.1463 29.2925C37.8515 28.7095 38.6696 28.418 39.6006 28.418C40.2353 28.418 40.7761 28.566 41.2228 28.8623C41.6741 29.1538 42.0175 29.563 42.2526 30.0895C42.4876 30.6161 42.6051 31.2391 42.6051 31.9586ZM39.2833 30.6466C39.0246 30.6466 38.766 30.9076 38.5073 31.4296C38.2488 31.9515 38.0396 32.6145 37.8796 33.4185C37.7198 34.2226 37.64 34.9725 37.64 35.6683C37.64 36.0633 37.6751 36.3525 37.7456 36.536C37.8163 36.7193 37.9573 36.811 38.169 36.811C38.4416 36.811 38.7026 36.59 38.9518 36.148C39.2056 35.7013 39.4196 35.076 39.5936 34.272C39.7723 33.468 39.8616 32.678 39.8616 31.9021C39.8616 31.5025 39.817 31.1945 39.7276 30.9781C39.643 30.7571 39.4948 30.6466 39.2833 30.6466Z" fill="#071D49"/>
</svg>
