<svg width="50" height="50" viewBox="0 0 50 50" fill="none" xmlns="http://www.w3.org/2000/svg">
<path d="M44.4436 0.553223H5.55469C2.79327 0.553223 0.554688 2.7918 0.554688 5.55322V44.4422C0.554688 47.2035 2.79327 49.4422 5.55469 49.4422H44.4436C47.205 49.4422 49.4436 47.2035 49.4436 44.4422V5.55322C49.4436 2.7918 47.205 0.553223 44.4436 0.553223Z" fill="#E0E0E0" fill-opacity="0.6" stroke="#E5E5E5"/>
<path d="M22.6621 38.8897H12.8477L13.3652 36.3897L18.0821 32.1319C19.6966 30.6931 20.5039 29.5179 20.5039 28.6066C20.5039 28.2876 20.4193 28.0499 20.2499 27.8936C20.0808 27.7309 19.8659 27.6496 19.6054 27.6496C18.8243 27.6496 17.9096 28.1281 16.8613 29.0851L15.045 26.5656C16.5683 25.1267 18.3294 24.4072 20.3281 24.4072C21.5196 24.4072 22.4799 24.7329 23.2089 25.3839C23.9383 26.0284 24.3028 26.9041 24.3028 28.0109C24.3028 29.0004 24.0196 29.9282 23.4531 30.7941C22.8868 31.6599 21.9166 32.6852 20.5429 33.8702L18.5409 35.5889V35.7062H23.3263L22.6621 38.8897ZM31.4023 29.5342C32.5808 29.5342 33.5346 29.9184 34.2636 30.6866C34.9993 31.4482 35.3673 32.4769 35.3673 33.7726C35.3673 35.4717 34.8431 36.7836 33.7949 37.7081C32.7468 38.6261 31.2299 39.0851 29.2443 39.0851C28.4043 39.0851 27.6068 39.0134 26.8516 38.8702C26.1029 38.7269 25.5528 38.5284 25.2013 38.2746V35.1104C25.7156 35.4034 26.3046 35.6346 26.9688 35.8039C27.6329 35.9666 28.2318 36.0479 28.7656 36.0479C30.5689 36.0479 31.4708 35.4229 31.4708 34.1729C31.4708 33.6782 31.3046 33.2777 30.9726 32.9717C30.6471 32.6657 30.2044 32.5127 29.6446 32.5127C29.2996 32.5127 28.9383 32.5452 28.5606 32.6104C28.1829 32.6756 27.8834 32.7472 27.6621 32.8252L26.4708 31.9269L28.5703 24.6124H36.5098L35.8458 27.7667H31.2461L30.6699 29.5732C30.8978 29.5472 31.1419 29.5342 31.4023 29.5342Z" fill="#FFC600"/>
<path d="M12.329 18.8905H10.7057L8.2616 15.4734V18.8905H6.83203V12.1484H8.2616V15.4134L10.6781 12.1484H12.1998L9.74191 15.3858L12.329 18.8905ZM14.6071 15.3212H15.0775C15.5171 15.3212 15.8461 15.2351 16.0643 15.063C16.2826 14.8878 16.3917 14.6341 16.3917 14.3021C16.3917 13.967 16.2995 13.7194 16.1151 13.5596C15.9336 13.3998 15.6477 13.3198 15.2573 13.3198H14.6071V15.3212ZM17.8351 14.2513C17.8351 14.9769 17.6076 15.5318 17.1526 15.9161C16.7008 16.3004 16.0566 16.4926 15.2204 16.4926H14.6071V18.8905H13.1775V12.1484H15.3311C16.1488 12.1484 16.7699 12.3252 17.1941 12.6788C17.6214 13.0293 17.8351 13.5534 17.8351 14.2513ZM22.9908 18.8905H19.1079V12.1484H22.9908V13.3198H20.5374V14.8001H22.8203V15.9714H20.5374V17.71H22.9908V18.8905ZM23.5996 17.7008H24.1208C24.5664 16.8092 24.9184 15.9192 25.1768 15.0307C25.4349 14.1391 25.6271 13.1783 25.7531 12.1484H29.6821V17.7008H30.5814V20.8552H29.2026V18.8905H24.9784V20.8552H23.5996V17.7008ZM26.8876 13.3382C26.7893 14.0423 26.6248 14.7878 26.3943 15.5749C26.1668 16.3619 25.9099 17.0705 25.6241 17.7008H28.2573V13.3382H26.8876ZM31.6238 12.1484H32.9103V15.4042L32.8918 16.2758L32.8458 17.2673H32.8734L35.9861 12.1484H37.6971V18.8905H36.4243V15.6532C36.4243 15.2198 36.4519 14.5772 36.5073 13.7257H36.4704L33.3438 18.8905H31.6238V12.1484ZM41.9996 18.8905H40.5701V13.3382H38.7393V12.1484H43.8304V13.3382H41.9996V18.8905Z" fill="#071D49"/>
</svg>
