<svg width="40" height="40" viewBox="0 0 40 40" fill="none" xmlns="http://www.w3.org/2000/svg">
<circle opacity="0.7" cx="20" cy="20" r="19.5" fill="#2D2F43" fill-opacity="0.1" stroke="#2D2F43"/>
<path d="M24.7096 15.8593C24.7096 18.3906 22.6576 20.4425 20.1263 20.4425C17.595 20.4425 15.543 18.3906 15.543 15.8593C15.543 13.328 17.595 11.2759 20.1263 11.2759C22.6576 11.2759 24.7096 13.328 24.7096 15.8593Z" fill="#2D2F43"/>
<path d="M24.2641 22.2759H16.9052C14.6378 22.2759 12.793 24.0122 12.793 26.1462V28.9981C12.793 29.3354 13.0839 29.6092 13.4423 29.6092H27.727C28.0854 29.6092 28.3763 29.3354 28.3763 28.9981V26.1462C28.3763 24.0122 26.5314 22.2759 24.2641 22.2759Z" fill="#2D2F43"/>
</svg>
