<svg width="40" height="17" viewBox="0 0 40 17" fill="none" xmlns="http://www.w3.org/2000/svg">
<path fill-rule="evenodd" clip-rule="evenodd" d="M5.78421 3.77167C6.50886 3.83279 7.23351 3.4049 7.68641 2.86239C8.13177 2.3046 8.42615 1.55578 8.35067 0.791687C7.70906 0.822251 6.91647 1.21958 6.46357 1.77737C6.04841 2.25875 5.69363 3.03813 5.78421 3.77167ZM14.4045 13.6132V1.70098H18.8203C21.0999 1.70098 22.6927 3.2903 22.6927 5.61315C22.6927 7.936 21.0697 9.54061 18.7599 9.54061H16.2312V13.6132H14.4045ZM8.34307 3.91685C7.70467 3.87966 7.12216 4.1112 6.65165 4.29822C6.34887 4.41857 6.09246 4.52049 5.89739 4.52049C5.67849 4.52049 5.4115 4.41312 5.11173 4.29258C4.71894 4.13462 4.26986 3.95403 3.79894 3.9627C2.71952 3.97798 1.71558 4.5969 1.16455 5.58258C0.0322856 7.55395 0.870158 10.4728 1.96468 12.0774C2.50061 12.8721 3.14223 13.7431 3.98765 13.7126C4.35958 13.6984 4.62713 13.5834 4.90402 13.4645C5.22279 13.3276 5.55394 13.1853 6.07101 13.1853C6.57015 13.1853 6.88682 13.3239 7.1908 13.4569C7.47983 13.5833 7.7574 13.7047 8.16946 13.6973C9.04508 13.682 9.59611 12.9026 10.132 12.108C10.7104 11.2551 10.9646 10.4227 11.0031 10.2964L11.0077 10.2818C11.0067 10.2808 10.9996 10.2775 10.9871 10.2717L10.987 10.2717L10.987 10.2717C10.7936 10.1821 9.3159 9.49728 9.30172 7.66092C9.28749 6.11957 10.4738 5.33863 10.6606 5.21569C10.672 5.20821 10.6796 5.20317 10.6831 5.20054C9.92824 4.06967 8.75069 3.94742 8.34307 3.91685ZM26.0291 13.7049C27.1765 13.7049 28.2408 13.1165 28.7239 12.1843H28.7616V13.6132H30.4525V7.68379C30.4525 5.96457 29.0938 4.85664 27.0029 4.85664C25.0629 4.85664 23.6287 5.97986 23.5759 7.52333H25.2214C25.3573 6.7898 26.0291 6.30842 26.95 6.30842C28.0672 6.30842 28.6937 6.83564 28.6937 7.80605V8.46317L26.4141 8.60071C24.293 8.7306 23.1456 9.60931 23.1456 11.1375C23.1456 12.681 24.3307 13.7049 26.0291 13.7049ZM26.5197 12.2913C25.5459 12.2913 24.927 11.8176 24.927 11.0917C24.927 10.3429 25.5233 9.90737 26.6631 9.8386L28.6936 9.70871V10.3811C28.6936 11.4967 27.7576 12.2913 26.5197 12.2913ZM36.0609 14.0793C35.3287 16.1653 34.4908 16.853 32.7094 16.853C32.5735 16.853 32.1206 16.8377 32.0149 16.8071V15.3783C32.1282 15.3935 32.4075 15.4088 32.5509 15.4088C33.3586 15.4088 33.8115 15.065 34.0908 14.171L34.2568 13.6438L31.162 4.97127H33.0717L35.223 12.0086H35.2608L37.4121 4.97127H39.269L36.0609 14.0793ZM16.2311 3.2597H18.3371C19.9222 3.2597 20.828 4.11549 20.828 5.62076C20.828 7.12603 19.9222 7.98946 18.3295 7.98946H16.2311V3.2597Z" fill="black"/>
</svg>
