<svg width="40" height="17" viewBox="0 0 40 17" fill="none" xmlns="http://www.w3.org/2000/svg">
<path fill-rule="evenodd" clip-rule="evenodd" d="M18.4427 13.2938V8.63645H20.8464C21.8314 8.63645 22.6628 8.30641 23.3405 7.65548L23.5032 7.49046C24.7412 6.14278 24.6598 4.04332 23.3405 2.79648C22.6808 2.13639 21.7772 1.77884 20.8464 1.79718H16.9878V13.2938H18.4427ZM18.4429 7.22461V3.20906H20.8831C21.4073 3.20906 21.9044 3.41076 22.275 3.77747C23.0613 4.54758 23.0794 5.83109 22.3202 6.6287C21.9496 7.02292 21.4254 7.24295 20.8831 7.22461H18.4429ZM30.2897 6.04195C29.6662 5.46437 28.8167 5.171 27.7414 5.171C26.3588 5.171 25.3196 5.6844 24.6328 6.70204L25.916 7.51798C26.3859 6.82122 27.0275 6.47284 27.8408 6.47284C28.3558 6.47284 28.8529 6.66537 29.2414 7.01375C29.621 7.34379 29.8378 7.82053 29.8378 8.32476V8.66397C29.2776 8.35226 28.5727 8.18724 27.7052 8.18724C26.6931 8.18724 25.8798 8.42561 25.2744 8.91151C24.6689 9.39741 24.3617 10.0392 24.3617 10.8551C24.3436 11.5977 24.6599 12.3036 25.2202 12.7804C25.7895 13.2938 26.5124 13.5505 27.3618 13.5505C28.3649 13.5505 29.1601 13.1012 29.7656 12.2028H29.8288V13.2938H31.2204V8.44394C31.2204 7.4263 30.9132 6.61953 30.2897 6.04195ZM26.341 11.8452C26.0427 11.6252 25.8619 11.2676 25.8619 10.8826C25.8619 10.4517 26.0608 10.0941 26.4494 9.80992C26.8471 9.52572 27.3442 9.37903 27.9317 9.37903C28.7451 9.36986 29.3777 9.55322 29.8296 9.91994C29.8296 10.5434 29.5856 11.0843 29.1066 11.5427C28.6728 11.9827 28.0853 12.2303 27.4707 12.2303C27.064 12.2394 26.6663 12.1019 26.341 11.8452ZM34.3471 16.7501L39.2088 5.42771H37.6274L35.3773 11.0752H35.3502L33.0458 5.42771H31.4644L34.6543 12.7896L32.847 16.7501H34.3471Z" fill="#3C4043"/>
<path d="M13.4196 7.62795C13.4196 7.17872 13.3834 6.72949 13.3111 6.28943H7.17529V8.82894H10.6905C10.5459 9.64489 10.076 10.3783 9.38925 10.8367V12.4869H11.4857C12.7147 11.341 13.4196 9.64489 13.4196 7.62795Z" fill="#4285F4"/>
<path d="M7.17575 14.0821C8.92884 14.0821 10.4108 13.4954 11.4862 12.4869L9.38971 10.8367C8.80233 11.2401 8.0523 11.4693 7.17575 11.4693C5.47687 11.4693 4.04006 10.3049 3.52497 8.7464H1.36523V10.4516C2.4677 12.6794 4.7178 14.0821 7.17575 14.0821Z" fill="#34A853"/>
<path d="M3.52526 8.74643C3.25412 7.93049 3.25412 7.0412 3.52526 6.21609V4.52002H1.36518C0.434263 6.38111 0.434263 8.58141 1.36518 10.4425L3.52526 8.74643Z" fill="#FBBC04"/>
<path d="M7.17575 3.4932C8.10652 3.47487 9.00114 3.83241 9.66984 4.48334L11.5314 2.59474C10.3476 1.47626 8.79329 0.862007 7.17575 0.880343C4.7178 0.880343 2.4677 2.2922 1.36523 4.52001L3.52497 6.22524C4.04006 4.65753 5.47687 3.4932 7.17575 3.4932Z" fill="#EA4335"/>
</svg>
