<svg width="35" height="22" viewBox="0 0 35 22" fill="none" xmlns="http://www.w3.org/2000/svg">
<path fill-rule="evenodd" clip-rule="evenodd" d="M17.3648 19.4503C15.5277 21.0355 13.1448 21.9925 10.541 21.9925C4.73095 21.9925 0.0209961 17.2279 0.0209961 11.3504C0.0209961 5.47294 4.73095 0.708313 10.541 0.708313C13.1448 0.708313 15.5277 1.66531 17.3648 3.25057C19.2018 1.66531 21.5847 0.708313 24.1885 0.708313C29.9986 0.708313 34.7085 5.47294 34.7085 11.3504C34.7085 17.2279 29.9986 21.9925 24.1885 21.9925C21.5847 21.9925 19.2018 21.0355 17.3648 19.4503Z" fill="#ED0006"/>
<path fill-rule="evenodd" clip-rule="evenodd" d="M17.3647 19.4503C19.6267 17.4983 21.061 14.5938 21.061 11.3504C21.061 8.10703 19.6267 5.20253 17.3647 3.25057C19.2018 1.66531 21.5847 0.708313 24.1885 0.708313C29.9985 0.708313 34.7085 5.47294 34.7085 11.3504C34.7085 17.2279 29.9985 21.9925 24.1885 21.9925C21.5847 21.9925 19.2018 21.0355 17.3647 19.4503Z" fill="#F9A000"/>
<path fill-rule="evenodd" clip-rule="evenodd" d="M17.3646 3.25061C19.6265 5.20257 21.0608 8.10705 21.0608 11.3504C21.0608 14.5938 19.6265 17.4983 17.3646 19.4502C15.1027 17.4983 13.6685 14.5938 13.6685 11.3504C13.6685 8.10705 15.1027 5.20257 17.3646 3.25061Z" fill="#FF5E00"/>
</svg>
