<svg width="57" height="39" viewBox="0 0 57 39" fill="none" xmlns="http://www.w3.org/2000/svg">
<g filter="url(#filter0_d_291_5774)">
<rect x="2.37549" y="0.5" width="53" height="36" rx="3.5" fill="white" stroke="#D9D9D9"/>
<path d="M25.1498 9.216C26.9595 8.00839 29.0866 7.36451 31.2622 7.3658C33.4378 7.3671 35.5641 8.0135 37.3723 9.22327C39.1806 10.433 40.5894 12.1518 41.4208 14.1623C42.2522 16.1728 42.4687 18.3847 42.043 20.5182C41.6173 22.6517 40.5685 24.6111 39.0292 26.1486C37.4899 27.6861 35.5293 28.7325 33.3952 29.1557C31.2612 29.5789 29.0496 29.3597 27.0401 28.526C25.0306 27.6922 23.3135 26.2813 22.1058 24.4716L31.2556 18.3658L25.1498 9.216Z" fill="#F9D949"/>
<path d="M18.0628 24.4062C17.2666 23.2008 16.7372 21.8362 16.5049 20.3903C16.2725 18.9443 16.3417 17.4453 16.7085 15.9789C17.0753 14.5124 17.7325 13.1072 18.6427 11.8435C19.5528 10.5799 20.698 9.48241 22.0129 8.61387L28.0756 17.7923L18.0628 24.4062Z" fill="#4FAF32"/>
</g>
<defs>
<filter id="filter0_d_291_5774" x="0.875488" y="0" width="56" height="39" filterUnits="userSpaceOnUse" color-interpolation-filters="sRGB">
<feFlood flood-opacity="0" result="BackgroundImageFix"/>
<feColorMatrix in="SourceAlpha" type="matrix" values="0 0 0 0 0 0 0 0 0 0 0 0 0 0 0 0 0 0 127 0" result="hardAlpha"/>
<feOffset dy="1"/>
<feGaussianBlur stdDeviation="0.5"/>
<feComposite in2="hardAlpha" operator="out"/>
<feColorMatrix type="matrix" values="0 0 0 0 0.9375 0 0 0 0 0.9375 0 0 0 0 0.9375 0 0 0 1 0"/>
<feBlend mode="normal" in2="BackgroundImageFix" result="effect1_dropShadow_291_5774"/>
<feBlend mode="normal" in="SourceGraphic" in2="effect1_dropShadow_291_5774" result="shape"/>
</filter>
</defs>
</svg>
