<svg width="57" height="39" viewBox="0 0 57 39" fill="none" xmlns="http://www.w3.org/2000/svg">
<g filter="url(#filter0_d_291_5763)">
<rect x="2.37549" y="0.5" width="53" height="36" rx="3.5" fill="white" stroke="#D9D9D9"/>
<circle cx="15.3755" cy="18.5" r="10" stroke="#78AE49"/>
<path d="M14.5005 23H9.43799V22.1445L11.8872 19.6895C12.5122 19.0645 12.9575 18.5449 13.2231 18.1309C13.4927 17.7129 13.6274 17.2676 13.6274 16.7949C13.6274 16.3105 13.4888 15.9355 13.2114 15.6699C12.9341 15.4043 12.5396 15.2715 12.0278 15.2715C11.2778 15.2715 10.5591 15.5918 9.87158 16.2324V15.2246C10.5278 14.7129 11.2915 14.457 12.1626 14.457C12.9126 14.457 13.5024 14.6602 13.9321 15.0664C14.3618 15.4727 14.5767 16.0176 14.5767 16.7012C14.5767 17.2402 14.4282 17.7676 14.1313 18.2832C13.8345 18.7949 13.3013 19.4316 12.5317 20.1934L10.5923 22.1094V22.1328H14.5005V23ZM21.4028 20.7676H20.3247V23H19.3755V20.7676H15.4263V20.1406L19.1646 14.5977H20.3247V19.9883H21.4028V20.7676ZM19.3755 19.9883V16.3555C19.3755 16.0977 19.3833 15.8086 19.3989 15.4883H19.3755C19.3208 15.6289 19.2134 15.8438 19.0532 16.1328L16.4692 19.9883H19.3755Z" fill="#2D2F43"/>
<path d="M32.7056 19.4453V23H31.0854V13.1973H34.0591C35.1847 13.1973 36.0575 13.4593 36.6772 13.9834C37.297 14.5075 37.6069 15.2458 37.6069 16.1982C37.6069 17.1507 37.2834 17.93 36.6362 18.5361C35.9891 19.1423 35.1141 19.4453 34.0112 19.4453H32.7056ZM32.7056 14.5371V18.1191H33.7583C34.4556 18.1191 34.9865 17.9574 35.3511 17.6338C35.7157 17.3102 35.8979 16.8545 35.8979 16.2666C35.8979 15.1136 35.228 14.5371 33.8882 14.5371H32.7056ZM44.0601 23H42.522V21.9062H42.4946C42.0116 22.7448 41.3029 23.1641 40.3687 23.1641C39.6805 23.1641 39.1405 22.9772 38.7485 22.6035C38.3612 22.2298 38.1675 21.7354 38.1675 21.1201C38.1675 19.7985 38.9285 19.0283 40.4507 18.8096L42.5288 18.5156C42.5288 17.5176 42.0549 17.0186 41.1069 17.0186C40.2729 17.0186 39.521 17.3057 38.8511 17.8799V16.4922C39.5894 16.0547 40.4416 15.8359 41.4077 15.8359C43.1759 15.8359 44.0601 16.7064 44.0601 18.4473V23ZM42.5288 19.5615L41.0591 19.7666C40.6034 19.8258 40.2593 19.9375 40.0269 20.1016C39.799 20.2611 39.6851 20.5436 39.6851 20.9492C39.6851 21.2454 39.7899 21.4893 39.9995 21.6807C40.2137 21.8675 40.4985 21.9609 40.854 21.9609C41.3371 21.9609 41.7358 21.7923 42.0503 21.4551C42.3693 21.1133 42.5288 20.6849 42.5288 20.1699V19.5615ZM52.0649 16L48.9067 24.1211C48.2505 25.5703 47.3299 26.2949 46.145 26.2949C45.8123 26.2949 45.5343 26.2653 45.311 26.2061V24.8867C45.5617 24.9688 45.7896 25.0098 45.9946 25.0098C46.5871 25.0098 47.0291 24.7181 47.3208 24.1348L47.7925 22.9863L45.0103 16H46.7671L48.4351 21.0859C48.4533 21.1497 48.4943 21.3184 48.5581 21.5918H48.5923C48.6151 21.487 48.6561 21.3229 48.7153 21.0996L50.4653 16H52.0649Z" fill="#2D2F43"/>
</g>
<defs>
<filter id="filter0_d_291_5763" x="0.875488" y="0" width="56" height="39" filterUnits="userSpaceOnUse" color-interpolation-filters="sRGB">
<feFlood flood-opacity="0" result="BackgroundImageFix"/>
<feColorMatrix in="SourceAlpha" type="matrix" values="0 0 0 0 0 0 0 0 0 0 0 0 0 0 0 0 0 0 127 0" result="hardAlpha"/>
<feOffset dy="1"/>
<feGaussianBlur stdDeviation="0.5"/>
<feComposite in2="hardAlpha" operator="out"/>
<feColorMatrix type="matrix" values="0 0 0 0 0.9375 0 0 0 0 0.9375 0 0 0 0 0.9375 0 0 0 1 0"/>
<feBlend mode="normal" in2="BackgroundImageFix" result="effect1_dropShadow_291_5763"/>
<feBlend mode="normal" in="SourceGraphic" in2="effect1_dropShadow_291_5763" result="shape"/>
</filter>
</defs>
</svg>
