<svg width="56" height="39" viewBox="0 0 56 39" fill="none" xmlns="http://www.w3.org/2000/svg">
<g filter="url(#filter0_d_289_5689)">
<rect x="1.5" y="0.5" width="53" height="36" rx="3.5" fill="white" stroke="#D9D9D9"/>
<path fill-rule="evenodd" clip-rule="evenodd" d="M17.3933 25.0648H14.1219L11.6688 15.7133C11.5524 15.2831 11.3051 14.9028 10.9415 14.7236C10.0339 14.2731 9.03385 13.9146 7.94287 13.7339V13.3738H13.2128C13.9401 13.3738 14.4856 13.9146 14.5765 14.5428L15.8493 21.2884L19.1191 13.3738H22.2995L17.3933 25.0648ZM24.1178 25.0648H21.0283L23.5723 13.3738H26.6618L24.1178 25.0648ZM30.6589 16.6126C30.7498 15.9829 31.2953 15.6229 31.9317 15.6229C32.9318 15.5325 34.0212 15.7133 34.9304 16.1621L35.4758 13.645C34.5667 13.285 33.5666 13.1042 32.6591 13.1042C29.6605 13.1042 27.4785 14.7236 27.4785 16.9711C27.4785 18.6808 29.024 19.5786 30.115 20.1194C31.2953 20.6587 31.7499 21.0187 31.659 21.558C31.659 22.3669 30.7498 22.7269 29.8423 22.7269C28.7513 22.7269 27.6603 22.4573 26.6618 22.0069L26.1164 24.5256C27.2073 24.9744 28.3876 25.1552 29.4786 25.1552C32.8409 25.2441 34.9304 23.6262 34.9304 21.198C34.9304 18.14 30.6589 17.9608 30.6589 16.6126ZM45.7429 25.0648L43.2898 13.3738H40.6548C40.1093 13.3738 39.5638 13.7339 39.382 14.2731L34.8394 25.0648H38.0199L38.6547 23.3566H42.5624L42.9261 25.0648H45.7429ZM41.1094 16.5222L42.0169 20.9283H39.4729L41.1094 16.5222Z" fill="#172B85"/>
</g>
<defs>
<filter id="filter0_d_289_5689" x="0" y="0" width="56" height="39" filterUnits="userSpaceOnUse" color-interpolation-filters="sRGB">
<feFlood flood-opacity="0" result="BackgroundImageFix"/>
<feColorMatrix in="SourceAlpha" type="matrix" values="0 0 0 0 0 0 0 0 0 0 0 0 0 0 0 0 0 0 127 0" result="hardAlpha"/>
<feOffset dy="1"/>
<feGaussianBlur stdDeviation="0.5"/>
<feComposite in2="hardAlpha" operator="out"/>
<feColorMatrix type="matrix" values="0 0 0 0 0.9375 0 0 0 0 0.9375 0 0 0 0 0.9375 0 0 0 1 0"/>
<feBlend mode="normal" in2="BackgroundImageFix" result="effect1_dropShadow_289_5689"/>
<feBlend mode="normal" in="SourceGraphic" in2="effect1_dropShadow_289_5689" result="shape"/>
</filter>
</defs>
</svg>
