<svg width="24" height="24" viewBox="0 0 24 24" fill="none" xmlns="http://www.w3.org/2000/svg">
<path d="M18.5025 3C16.5725 3 15.0025 4.5705 15.0025 6.5V8H17.0025V6.5C17.0025 5.673 17.6755 5 18.5025 5C19.3295 5 20.0025 5.673 20.0025 6.5V12H19.836H16H15.169C14.3005 12 13.555 12.5165 13.21 13.256C12.84 13.0925 12.432 13 12.0025 13C11.5935 13 11.2035 13.083 10.848 13.2315C10.546 12.5095 9.833 12 9.0025 12H8.5025H8.0025H4.0025H4V6.5C4 5.673 4.673 5 5.5 5C6.327 5 7 5.673 7 6.5V8H9V6.5C9 4.5705 7.43 3 5.5 3C3.57 3 2 4.5705 2 6.5V14H2.0025V16.2C2.0025 16.2345 2.011 16.2665 2.0125 16.3C2.0095 16.3665 2.0025 16.4325 2.0025 16.4995C2.0025 18.981 4.0215 20.9995 6.5025 20.9995C8.9835 20.9995 11.0025 18.981 11.0025 16.4995C11.0025 16.432 10.9955 16.3665 10.9925 16.3C10.994 16.266 11.0025 16.234 11.0025 16.2V16C11.0025 15.4485 11.451 15 12.0025 15C12.554 15 13.0025 15.4485 13.0025 16V16.033C13.0025 16.0865 13.0145 16.1365 13.018 16.189C13.011 16.292 13.0025 16.395 13.0025 16.5C13.0025 18.9815 15.0215 21 17.5025 21C19.9835 21 22.0025 18.9815 22.0025 16.5C22.0025 16.395 21.994 16.292 21.987 16.189C21.991 16.1365 22.0025 16.0865 22.0025 16.033V14.1665C22.0025 14.1095 21.99 14.056 21.9855 14H22.0025V6.5C22.0025 4.5705 20.4325 3 18.5025 3ZM6.5025 19V17C6.778 17 7.0025 16.776 7.0025 16.5H9.0025C9.0025 17.8785 7.881 19 6.5025 19ZM17.5025 17C17.778 17 18.0025 16.776 18.0025 16.5H20.0025C20.0025 17.8785 18.881 19 17.5025 19V17Z" fill="#43455C"/>
</svg>
