<svg width="24" height="24" viewBox="0 0 24 24" fill="none" xmlns="http://www.w3.org/2000/svg">
<path d="M21.0039 9.4615H19.0369C18.6264 7.488 16.8739 6 14.7804 6H9.22541C7.13191 6 5.37941 7.488 4.96891 9.4615H3.00391C2.45191 9.4615 2.00391 9.9095 2.00391 10.4615C2.00391 11.0135 2.45191 11.4615 3.00391 11.4615H4.15391C4.05141 11.751 3.99291 12.061 3.99291 12.3855V15.2245C3.99291 15.3405 4.00241 15.454 4.01591 15.5665C4.01091 15.6285 3.99741 15.6875 3.99741 15.7505V17.6565C3.99741 18.951 5.05041 20.004 6.34491 20.004H6.35391C7.52791 20.004 8.49441 19.135 8.66591 18.0085H15.2004C15.3864 19.1355 16.3609 20 17.5404 20H17.6214C18.9334 20 20.0009 18.9325 20.0009 17.6205V15.785C20.0009 15.719 19.9869 15.657 19.9814 15.5925C19.9974 15.4715 20.0089 15.3495 20.0089 15.224V12.385C20.0089 12.061 19.9504 11.7505 19.8479 11.461H21.0039C21.5559 11.461 22.0039 11.013 22.0039 10.461C22.0039 9.909 21.5559 9.4615 21.0039 9.4615ZM8.49591 13.7745C8.45891 14.0105 8.33191 14.217 8.13941 14.357C7.94641 14.498 7.71091 14.557 7.47491 14.5165C7.23941 14.4795 7.03241 14.3525 6.89241 14.1595C6.60291 13.761 6.69141 13.2015 7.08941 12.9125C7.24741 12.798 7.43141 12.742 7.61341 12.742C7.88941 12.742 8.16241 12.8695 8.33641 13.1095C8.47691 13.3025 8.53341 13.539 8.49591 13.7745ZM9.28691 15.992C9.29591 15.9855 9.30591 15.9815 9.31491 15.975C9.93991 15.521 10.3509 14.8505 10.4719 14.087C10.5924 13.324 10.4089 12.559 9.95491 11.934C9.87141 11.8195 9.77941 11.7155 9.68341 11.617H14.5444C14.1264 12.043 13.8459 12.5815 13.7504 13.183C13.6294 13.946 13.8134 14.711 14.2674 15.336C14.4574 15.5975 14.6924 15.8115 14.9489 15.992H9.28691ZM7.03541 9.5C7.37641 8.623 8.22941 8 9.22491 8H14.7799C15.7759 8 16.6289 8.623 16.9699 9.5H7.03541ZM17.4894 13.775C17.4524 14.0105 17.3254 14.2175 17.1324 14.3575C16.9394 14.498 16.7039 14.5565 16.4679 14.517C16.2324 14.48 16.0254 14.353 15.8854 14.16C15.7449 13.967 15.6879 13.7315 15.7259 13.4955C15.7629 13.26 15.8899 13.053 16.0829 12.913C16.2409 12.7985 16.4249 12.7425 16.6069 12.7425C16.8829 12.7425 17.1559 12.8705 17.3299 13.11C17.4699 13.303 17.5269 13.5395 17.4894 13.775Z" fill="#43455C"/>
</svg>
