<svg width="24" height="24" viewBox="0 0 24 24" fill="none" xmlns="http://www.w3.org/2000/svg">
<path d="M6 22H8C8 19.7945 9.7945 18 12 18V16C9.7945 16 8 14.2055 8 12H6C6 14.2055 4.2055 16 2 16V18C4.2055 18 6 19.7945 6 22ZM7 15.3135C7.444 15.9815 8.0185 16.5555 8.6865 17C8.0185 17.4445 7.444 18.0185 7 18.6865C6.556 18.0185 5.9815 17.4445 5.3135 17C5.9815 16.5555 6.556 15.9815 7 15.3135Z" fill="#43455C"/>
<path d="M19.9995 16H17.9995V18H16V20H17.9995V22H19.9995V20H22V18H19.9995V16Z" fill="#43455C"/>
<path d="M18 2H16C16 4.2055 14.2055 6 12 6V8C14.2055 8 16 9.7945 16 12H18C18 9.7945 19.7945 8 22 8V6C19.7945 6 18 4.2055 18 2ZM17 8.6865C16.556 8.0185 15.9815 7.4445 15.3135 7C15.9815 6.5555 16.556 5.9815 17 5.3135C17.444 5.9815 18.0185 6.5555 18.6865 7C18.0185 7.4445 17.444 8.0185 17 8.6865Z" fill="#43455C"/>
<path d="M4.0005 8H6.0005V6H8V4H6.0005V2H4.0005V4H2V6H4.0005V8Z" fill="#43455C"/>
</svg>
