<svg width="24" height="24" viewBox="0 0 24 24" fill="none" xmlns="http://www.w3.org/2000/svg">
<path d="M15 2C14.2575 2 13.6325 2.415 13.1465 3H10.8535C10.3675 2.415 9.7425 2 9 2C8.2575 2 7.6325 2.415 7.1465 3H4V22H20V3H16.8535C16.3675 2.415 15.7425 2 15 2ZM6 10H18V20H6V10ZM18 6V8H6V6V5H18V6Z" fill="#43455C"/>
<path d="M16 12H8V18H16V12ZM14 16H10V14H14V16Z" fill="#43455C"/>
<path d="M8 7.5C8.55228 7.5 9 7.05228 9 6.5C9 5.94772 8.55228 5.5 8 5.5C7.44772 5.5 7 5.94772 7 6.5C7 7.05228 7.44772 7.5 8 7.5Z" fill="#43455C"/>
<path d="M12 7.5C12.5523 7.5 13 7.05228 13 6.5C13 5.94772 12.5523 5.5 12 5.5C11.4477 5.5 11 5.94772 11 6.5C11 7.05228 11.4477 7.5 12 7.5Z" fill="#43455C"/>
<path d="M16 7.5C16.5523 7.5 17 7.05228 17 6.5C17 5.94772 16.5523 5.5 16 5.5C15.4477 5.5 15 5.94772 15 6.5C15 7.05228 15.4477 7.5 16 7.5Z" fill="#43455C"/>
</svg>
