<svg width="24" height="24" viewBox="0 0 24 24" fill="none" xmlns="http://www.w3.org/2000/svg">
<path d="M12.537 2.0149C9.7655 1.8659 7.127 2.8389 5.117 4.7459C3.107 6.65339 2 9.2299 2 12.0004C2 15.1489 3.5105 18.1514 6.0405 20.0314C6.4845 20.3619 7.111 20.2679 7.44 19.8254C7.769 19.3819 7.677 18.7554 7.234 18.4259C5.1785 16.8994 4 14.5574 4 12.0004C4 9.7839 4.8855 7.72239 6.494 6.1969C8.1015 4.6719 10.206 3.9009 12.4325 4.0119C16.459 4.2234 19.7775 7.5429 19.9885 11.5684C20.175 15.1214 17.962 18.4109 14.607 19.5669C14.2425 19.6919 13.8485 19.6329 13.529 19.4044C13.193 19.1649 13 18.7914 13 18.3809V16.3249C14.1615 15.9104 15 14.8004 15 13.5009V11.5279C15 11.5269 15 11.5264 15 11.5254V8.52139C15 7.96939 14.552 7.5214 14 7.5214C13.448 7.5214 13 7.96939 13 8.52139V10.0009H11V8.52139C11 7.96939 10.552 7.5214 10 7.5214C9.448 7.5214 9 7.96939 9 8.52139V13.0214C9 13.0219 9 13.0229 9 13.0239V13.5009C9 14.7999 9.8385 15.9099 11 16.3249V18.3814C11 19.4314 11.511 20.4224 12.368 21.0334C12.924 21.4304 13.566 21.6344 14.2175 21.6344C14.5655 21.6344 14.916 21.5764 15.2585 21.4579C19.4525 20.0129 22.2185 15.9034 21.9855 11.4644C21.7225 6.4294 17.5725 2.2789 12.537 2.0149Z" fill="#43455C"/>
</svg>
