<svg width="24" height="24" viewBox="0 0 24 24" fill="none" xmlns="http://www.w3.org/2000/svg">
<path d="M4.081 16.6965C3.421 17.2475 3 18.075 3 19C3 20.6545 4.3455 22 6 22C7.6545 22 9 20.6545 9 19C9 18.231 8.707 17.5315 8.23 17H9.7705C9.293 17.5315 9 18.231 9 19C9 20.6545 10.3455 22 12 22C13.6545 22 15 20.6545 15 19C15 18.231 14.707 17.5315 14.23 17H15.7705C15.293 17.5315 15 18.231 15 19C15 20.6545 16.3455 22 18 22C19.6545 22 21 20.6545 21 19C21 18.075 20.579 17.2475 19.919 16.6965C21.143 16.151 22 14.9245 22 13.5C22 11.5705 20.43 10 18.5 10C12.823 10 10.477 2.7735 10.4545 2.7015L10.235 2H2V13.5C2 14.9245 2.857 16.151 4.081 16.6965ZM12 20C11.4485 20 11 19.5515 11 19C11 18.4485 11.4485 18 12 18C12.5515 18 13 18.4485 13 19C13 19.5515 12.5515 20 12 20ZM6 20C5.4485 20 5 19.5515 5 19C5 18.4485 5.4485 18 6 18C6.5515 18 7 18.4485 7 19C7 19.5515 6.5515 20 6 20ZM18 20C17.4485 20 17 19.5515 17 19C17 18.4485 17.4485 18 18 18C18.5515 18 19 18.4485 19 19C19 19.5515 18.5515 20 18 20ZM4 4H8.801C9.0225 4.5575 9.3965 5.3965 9.936 6.3215L7.1285 9.129L8.5425 10.543L11.0735 8.012C11.5 8.5605 11.9485 9.057 12.4195 9.495L9.9575 11.957L11.3715 13.371L14.0245 10.718C15.3985 11.5615 16.904 12 18.5 12C19.327 12 20 12.673 20 13.5C20 14.327 19.327 15 18.5 15H5.5C4.673 15 4 14.327 4 13.5V4Z" fill="#43455C"/>
</svg>
