<svg width="24" height="24" viewBox="0 0 24 24" fill="none" xmlns="http://www.w3.org/2000/svg">
<path d="M17 3C17.5523 3 18 2.55228 18 2C18 1.44772 17.5523 1 17 1C16.4477 1 16 1.44772 16 2C16 2.55228 16.4477 3 17 3Z" fill="#43455C"/>
<path d="M7 3C7.55228 3 8 2.55228 8 2C8 1.44772 7.55228 1 7 1C6.44772 1 6 1.44772 6 2C6 2.55228 6.44772 3 7 3Z" fill="#43455C"/>
<path d="M13 11H11V9H9V15H11V13H13V15H15V9H13V11Z" fill="#43455C"/>
<path d="M15 5V1H9V5H1V19H6V23H18V19H23V5H15ZM21 17H19V7H21V17ZM8 19H11V21H8V19ZM16 21H13V19H16V21ZM7 17V7H9H15H17V17H7ZM11 3H13V5H11V3ZM5 17H3V7H5V17Z" fill="#43455C"/>
</svg>
