<svg width="24" height="24" viewBox="0 0 24 24" fill="none" xmlns="http://www.w3.org/2000/svg">
<path d="M4 20H20C21.1 20 22 19.1 22 18V9C22 7.9 21.1 7 20 7H16.33L14.598 4H9.402L7.67 7H4C2.9 7 2 7.9 2 9V18C2 19.1 2.9 20 4 20ZM4 9H7.67H8.8245L9.402 8L10.5565 6H13.4435L14.598 8L15.1755 9H16.33H20V18H4V9Z" fill="#43455C"/>
<path d="M12 10C10.343 10 9 11.343 9 13C9 14.657 10.343 16 12 16C13.657 16 15 14.657 15 13C15 11.343 13.657 10 12 10ZM12 14C11.4485 14 11 13.5515 11 13C11 12.4485 11.4485 12 12 12C12.5515 12 13 12.4485 13 13C13 13.5515 12.5515 14 12 14Z" fill="#43455C"/>
</svg>
