<svg width="25" height="25" viewBox="0 0 25 25" fill="none" xmlns="http://www.w3.org/2000/svg">
<g clip-path="url(#clip0_831_6697)">
<path d="M6.69844 16.175C5.54344 16.175 4.60894 17.12 4.60894 18.275C4.60894 19.43 5.54344 20.375 6.69844 20.375C7.85344 20.375 8.79844 19.43 8.79844 18.275C8.79844 17.12 7.85344 16.175 6.69844 16.175ZM0.398438 -0.625V1.475H2.49844L6.27844 9.4445L4.86094 12.017C4.69294 12.311 4.59844 12.6575 4.59844 13.025C4.59844 14.18 5.54344 15.125 6.69844 15.125H19.2984V13.025H7.13944C6.99244 13.025 6.87694 12.9095 6.87694 12.7625L6.90844 12.6365L7.85344 10.925H15.6759C16.4634 10.925 17.1564 10.4945 17.5134 9.8435L21.2724 3.029C21.3564 2.882 21.3984 2.7035 21.3984 2.525C21.3984 1.9475 20.9259 1.475 20.3484 1.475H4.81894L3.83194 -0.625H0.398438ZM17.1984 16.175C16.0434 16.175 15.1089 17.12 15.1089 18.275C15.1089 19.43 16.0434 20.375 17.1984 20.375C18.3534 20.375 19.2984 19.43 19.2984 18.275C19.2984 17.12 18.3534 16.175 17.1984 16.175Z" fill="white"/>
</g>
<defs>
<clipPath id="clip0_831_6697">
<rect width="24" height="24" fill="white" transform="translate(0.199219 0.5625)"/>
</clipPath>
</defs>
</svg>
