<svg width="24" height="26" viewBox="0 0 24 26" fill="none" xmlns="http://www.w3.org/2000/svg">
<g clip-path="url(#clip0_831_6685)">
<g clip-path="url(#clip1_831_6685)">
<path d="M16.4004 20.5881C16.4004 19.3658 15.5796 18.375 14.5671 18.375H7.23372C6.22119 18.375 5.40039 19.3658 5.40039 20.5881V21.375H16.4004V20.5881Z" fill="white"/>
<path d="M20.1699 5.26099V4.04958H12.6328C12.4469 3.53643 12.0369 3.13276 11.5156 2.94975V0.375H10.2852V2.94975C9.76393 3.13276 9.3539 3.53643 9.16801 4.04958H1.63086V5.26099H3.16911L0.400391 11.9237C0.400391 13.5935 1.78044 14.9522 3.47656 14.9522H4.70703C6.40315 14.9522 7.7832 13.5935 7.7832 11.9237L5.00197 5.26099H9.16805C9.35394 5.77414 9.76397 6.17781 10.2852 6.36082V15.0186C9.08282 15.2608 8.13167 16.1908 7.88652 17.375H13.9143C13.6692 16.1908 12.718 15.2608 11.5157 15.0186V6.36082C12.0369 6.17781 12.4469 5.77414 12.6328 5.26099H16.7863L14.0176 11.9237C14.0176 13.5935 15.3976 14.9522 17.0938 14.9522H18.3242C20.0203 14.9522 21.4004 13.5935 21.4004 11.9237L18.6192 5.26099H20.1699ZM6.24495 11.318H1.93864L4.0918 6.22986L6.24495 11.318ZM19.8621 11.318H15.5558L17.709 6.22986L19.8621 11.318Z" fill="white"/>
</g>
</g>
<defs>
<clipPath id="clip0_831_6685">
<rect width="24" height="25.3333" fill="white" transform="translate(0 0.291504)"/>
</clipPath>
<clipPath id="clip1_831_6685">
<rect width="24" height="24" fill="white" transform="translate(-0.400391 -3)"/>
</clipPath>
</defs>
</svg>
